<svg width="128" height="128" viewBox="0 0 128 128" fill="none" xmlns="http://www.w3.org/2000/svg">
<g clip-path="url(#clip0_32_511)">
<path d="M0 16C0 7.16344 7.16344 0 16 0H96C104.837 0 112 7.16344 112 16V96C112 104.837 104.837 112 96 112H16C7.16344 112 0 104.837 0 96V16Z" fill="#235448"/>
<g filter="url(#filter0_d_32_511)">
<path d="M8 24C8 15.1634 15.1634 8 24 8H104C112.837 8 120 15.1634 120 24V104C120 112.837 112.837 120 104 120H24C15.1634 120 8 112.837 8 104V24Z" fill="#2A7865"/>
</g>
<g filter="url(#filter1_d_32_511)">
<path d="M16 32C16 23.1634 23.1634 16 32 16H112C120.837 16 128 23.1634 128 32V112C128 120.837 120.837 128 112 128H32C23.1634 128 16 120.837 16 112V32Z" fill="#4CA38E"/>
</g>
<path d="M68.3 109C66.6333 109 65.4333 108.667 64.7 108C64.0333 107.267 63.7 106.167 63.7 104.7V53.2H47.3C45.7 53.2 44.6 52.9 44 52.3C43.4 51.6333 43.1 50.5333 43.1 49V45.3C43.1 43.7667 43.4 42.6667 44 42C44.6 41.3333 45.7 41 47.3 41H96.7C98.3 41 99.4 41.3333 100 42C100.667 42.6667 101 43.7667 101 45.3V49C101 50.4667 100.667 51.5333 100 52.2C99.4 52.8667 98.3 53.2 96.7 53.2H80.3V104.7C80.3 106.167 79.9333 107.267 79.2 108C78.5333 108.667 77.3667 109 75.7 109H68.3Z" fill="white"/>
</g>
<defs>
<filter id="filter0_d_32_511" x="2" y="2" width="120" height="120" filterUnits="userSpaceOnUse" color-interpolation-filters="sRGB">
<feFlood flood-opacity="0" result="BackgroundImageFix"/>
<feColorMatrix in="SourceAlpha" type="matrix" values="0 0 0 0 0 0 0 0 0 0 0 0 0 0 0 0 0 0 127 0" result="hardAlpha"/>
<feOffset dx="-2" dy="-2"/>
<feGaussianBlur stdDeviation="2"/>
<feComposite in2="hardAlpha" operator="out"/>
<feColorMatrix type="matrix" values="0 0 0 0 0.12549 0 0 0 0 0.12549 0 0 0 0 0.12549 0 0 0 0.15 0"/>
<feBlend mode="normal" in2="BackgroundImageFix" result="effect1_dropShadow_32_511"/>
<feBlend mode="normal" in="SourceGraphic" in2="effect1_dropShadow_32_511" result="shape"/>
</filter>
<filter id="filter1_d_32_511" x="11" y="12" width="120" height="120" filterUnits="userSpaceOnUse" color-interpolation-filters="sRGB">
<feFlood flood-opacity="0" result="BackgroundImageFix"/>
<feColorMatrix in="SourceAlpha" type="matrix" values="0 0 0 0 0 0 0 0 0 0 0 0 0 0 0 0 0 0 127 0" result="hardAlpha"/>
<feOffset dx="-1"/>
<feGaussianBlur stdDeviation="2"/>
<feComposite in2="hardAlpha" operator="out"/>
<feColorMatrix type="matrix" values="0 0 0 0 0.12549 0 0 0 0 0.12549 0 0 0 0 0.12549 0 0 0 0.25 0"/>
<feBlend mode="normal" in2="BackgroundImageFix" result="effect1_dropShadow_32_511"/>
<feBlend mode="normal" in="SourceGraphic" in2="effect1_dropShadow_32_511" result="shape"/>
</filter>
<clipPath id="clip0_32_511">
<rect width="128" height="128" fill="white"/>
</clipPath>
</defs>
</svg>
